<svg width="195" height="43" viewBox="0 0 195 43" fill="none" xmlns="http://www.w3.org/2000/svg">
<g clip-path="url(#clip0_72_1198)">
<path d="M193.11 26.52C192.5 26.42 191.88 26.35 191.26 26.31C190.74 26.28 190.22 26.3 189.74 26.3C189.54 25.52 190.34 25.57 190.37 25.28C190.51 24.18 191.29 24.44 191.96 24.4C192.87 24.34 193.77 24.26 194.67 24.18C194.5 23.82 194.29 23.65 194.05 23.57C193.62 23.43 193.17 23.32 192.71 23.25C192.14 23.16 191.82 22.87 191.79 22.24C192.21 22.03 192.61 21.82 193.02 21.6C192.3 21.22 191.66 20.87 190.79 20.41C192.07 20.26 192.75 19.24 193.88 19.53C193.47 19.18 193 18.98 192.73 18.63C192.53 18.37 192.46 17.98 192.05 18.07C191.76 18.14 191.51 18.37 191.23 18.53C190.64 18.33 190.5 17.86 190.51 17.31C191.26 17.14 192.11 17.83 192.72 17.01C192.65 15.54 191.72 15.1 190.49 14.98C189.25 14.86 188.02 14.69 186.79 14.58C186.44 14.55 185.98 14.51 185.74 14.69C185.54 14.84 185.57 15.32 185.49 15.69C185.2 15.65 184.93 15.61 184.58 15.57C184.7 15.15 184.8 14.81 184.9 14.48C183.91 14.16 183.91 14.16 183.4 14.51C183.04 14.54 182.67 14.57 182.35 14.59C182.3 13.86 182.26 13.31 182.21 12.64C183.28 12.78 184.38 12.91 185.48 13.08C186.55 13.25 187.61 13.47 188.68 13.63C189.34 13.73 190 13.74 190.34 12.97C189.45 12.66 188.6 12.37 187.76 12.08C186.94 11.8 186.14 11.43 185.3 11.26C184.43 11.08 183.54 11.01 182.63 11.07C182.16 11.1 181.67 10.95 181.2 10.82C180.69 10.68 180.2 10.32 179.7 10.32C178.47 10.31 178.47 10.37 177.37 9.35C180.44 9.89 183.38 10.4 186.33 10.91C186.46 10.47 186.54 10.17 186.64 9.83C186.29 9.71 186.02 9.58 185.74 9.52C183.14 8.99 180.53 8.47 177.93 7.94C174.5 7.24 171.08 6.51 167.65 5.81C163.93 5.06 160.23 4.21 156.49 3.61C151.18 2.77 145.85 2 140.5 1.43C135.94 0.94 131.36 0.7 126.78 0.48C121.71 0.24 116.63 0.0800003 111.56 -0.0099997C108.03 -0.0699997 104.49 0.0200003 100.95 0.0900003C97.9201 0.15 94.8801 0.27 91.8501 0.4C88.5801 0.56 85.2901 0.86 82.0001 0.85C78.4601 0.84 74.9801 1.5 71.4501 1.58C68.5401 1.65 65.6301 2.06 62.7201 2.35C61.9801 2.42 61.2501 2.64 60.5201 2.72C59.7801 2.8 59.0201 2.77 58.2801 2.86C56.0001 3.11 53.7401 3.42 51.4701 3.69C48.3201 4.07 45.1701 4.39 42.0301 4.82C38.6201 5.3 35.2201 5.89 31.7901 6.3C30.3001 6.47 28.8201 6.66 27.3401 6.88C25.6601 7.13 23.9901 7.45 22.3101 7.71C19.5501 8.13 16.7701 8.43 14.0301 8.96C12.2901 9.3 10.6401 10.09 8.90008 10.48C7.55008 10.79 7.07008 11.89 6.46008 12.82C6.24008 13.15 6.10008 13.58 5.73008 13.68C4.96008 13.91 5.10008 15.09 4.16008 15.08C4.16008 15.08 4.16008 15.15 4.16008 15.18C4.28008 15.32 4.41008 15.47 4.57008 15.66C4.11008 16.06 3.64008 16.03 3.20008 15.98C2.00008 15.85 0.990083 16.17 0.180083 17.13C0.390083 17.78 0.750083 18.07 1.54008 18.05C2.60008 18.02 3.67008 18.23 4.73008 18.34C4.76008 18.34 4.77008 18.48 4.86008 18.82C3.17008 18.72 1.45008 18.42 8.28633e-05 19.7C-0.0499171 20.94 0.830083 21.72 1.64008 22.52C1.98008 22.86 2.36008 23.16 2.72008 23.48C2.94008 23.67 3.14008 23.95 3.40008 24.02C4.34008 24.28 4.78008 24.83 4.55008 25.65C5.78008 26.12 6.91008 26.52 8.01008 26.98C8.73008 27.28 9.34008 27.74 10.1901 27.82C10.7401 27.87 11.5001 28.17 11.3801 29.16C10.6801 29.16 9.92008 29.27 9.55008 28.63C9.13008 27.89 8.29008 28.06 7.79008 27.58C7.24008 27.06 6.64008 27.27 6.01008 27.54C6.30008 27.64 6.62008 27.67 6.81008 27.84C7.69008 28.61 8.60008 29.29 9.83008 29.36C10.0601 29.37 10.2901 29.55 10.5201 29.65C11.1001 29.88 11.6701 30.1 12.2501 30.34C12.3201 30.37 12.3801 30.44 12.4801 30.52V31.29C12.5601 31.36 12.6201 31.44 12.6901 31.46C15.0201 32.07 17.3501 32.7 19.6901 33.25C21.2601 33.62 22.8601 33.89 24.4401 34.21C25.0801 34.34 25.7201 34.47 26.3701 34.57C27.2201 34.71 28.0801 34.82 28.9301 34.96C29.3401 35.03 29.7401 35.2 30.1501 35.23C31.9901 35.39 33.7701 35.98 35.6301 36.03C35.8301 36.03 36.0201 36.16 36.2101 36.25C36.8201 36.53 37.4001 36.77 38.1201 36.57C38.4401 36.48 38.9601 36.53 39.1801 36.74C39.7201 37.26 40.3701 37.27 41.0201 37.32C41.5101 37.36 42.0501 37.25 42.4901 37.41C44.7101 38.25 47.0701 38.15 49.3601 38.58C51.4501 38.96 53.5501 39.28 55.6601 39.54C56.6801 39.67 57.7101 39.63 58.7401 39.62C59.1401 39.62 59.5501 39.4 59.7801 39.98C59.8401 40.13 60.3101 40.25 60.5301 40.18C60.8201 40.09 60.9301 39.53 61.4101 39.94C61.6201 40.12 61.9901 40.1 62.2201 40.26C62.8201 40.67 63.3401 40.65 63.8301 40.04C64.0101 40.21 64.1301 40.41 64.3001 40.47C64.7101 40.62 65.1501 40.71 65.5801 40.82C65.8701 39.92 66.3701 40.67 66.7701 40.62C67.5001 40.53 68.0001 41.04 68.6901 41.03C69.6201 41.03 70.5601 41.25 71.5001 41.35C74.6901 41.66 77.8901 41.98 81.0801 42.24C82.3201 42.34 83.5701 42.25 84.8201 42.3C86.8501 42.38 88.8801 42.53 90.9101 42.61C92.4401 42.67 93.9801 42.62 95.5201 42.66C98.7601 42.75 102.01 42.93 105.25 42.94C110.12 42.96 115 42.87 119.87 42.8C123.71 42.75 127.54 42.68 131.37 42.59C135.5 42.49 139.62 42.37 143.74 42.23C147.78 42.09 151.82 41.9 155.87 41.73C156.98 41.68 158.09 41.61 159.28 41.55C158.99 41.05 159.02 40.74 159.46 40.66C160.26 40.52 161.08 40.34 161.89 40.36C163.6 40.42 165.3 40.06 167.01 40.3C167.09 40.31 167.17 40.26 167.25 40.25C168.1 40.16 168.96 40.05 169.81 39.98C170.33 39.94 170.86 39.98 171.39 39.96C171.68 39.95 171.97 39.87 172.26 39.86C173.17 39.84 174.08 39.86 174.99 39.82C175.49 39.8 175.94 39.81 176.45 40.34C175.5 40.5 174.71 40.63 173.93 40.76C173.94 40.8 173.95 40.85 173.96 40.89C176.42 40.71 178.88 40.54 181.34 40.36C181.34 40.3 181.34 40.24 181.35 40.19C180.96 40.12 180.56 40.04 179.86 39.91C180.34 39.66 180.55 39.46 180.74 39.46C182.33 39.51 183.79 38.4 185.43 38.92C185.54 38.96 185.72 38.97 185.8 38.9C186.01 38.74 186.18 38.53 186.37 38.35C186.17 38.17 185.95 37.83 185.77 37.85C185.13 37.9 184.49 38.08 183.81 38.21C183.11 38.16 182.34 38.07 181.56 38.04C180.77 38.01 180.69 37.92 180.84 36.99C181.48 36.82 182.18 36.4 182.73 36.54C183.79 36.81 184.79 36.63 185.81 36.57C187.11 36.5 188.41 36.36 189.72 36.25C188.44 36.13 187.24 36.01 186.41 34.89C186.36 34.16 187.35 34.59 187.39 34.15C186.93 33.63 186.53 33.18 186.16 32.77C186.67 31.74 187.62 31.85 188.33 31.63C188.64 31.19 188.92 30.8 189.22 30.38C190.32 30.9 190.91 30.27 191.47 29.54C191.01 29.19 190.25 29.48 189.91 28.6C190.38 28.57 190.78 28.56 191.16 28.5C191.42 28.46 191.85 28.41 191.91 28.26C192.13 27.69 192.56 27.72 193.02 27.65C193.25 27.61 193.56 27.41 193.64 27.2C193.78 26.82 193.47 26.58 193.11 26.52ZM191.7 16.42C191.59 16.56 191.49 16.69 191.38 16.83C191.32 16.66 191.27 16.49 191.21 16.32C191.38 16.36 191.54 16.39 191.7 16.42ZM6.41008 14.42C6.54008 14.5 6.61008 14.54 6.67008 14.57C6.59008 14.69 6.52008 14.82 6.42008 14.93C6.41008 14.94 6.22008 14.85 6.23008 14.84C6.28008 14.71 6.34008 14.57 6.41008 14.42ZM6.48008 15.33C6.19008 15.9 5.93008 15.92 5.36008 15.47C5.86008 15.41 6.10008 15.38 6.48008 15.33ZM5.71008 25.14C6.03008 25.26 6.35008 25.37 6.77008 25.53C6.16008 25.65 6.16008 25.65 5.71008 25.14ZM8.68008 26.47C8.25008 26.3 7.82008 26.13 7.38008 25.96C7.97008 25.76 8.52008 25.65 8.82008 26.22L8.68008 26.47ZM9.50008 14.32C8.85008 14.33 8.36008 14.09 8.03008 13.32C8.29008 13.26 8.55008 13.11 8.74008 13.17C9.15008 13.31 9.60008 13.48 9.88008 13.79C10.1101 14.03 9.89008 14.31 9.50008 14.32ZM12.1201 29.29C11.9801 29.27 11.7801 29.06 11.7601 28.92C11.7501 28.79 11.9901 28.49 12.0401 28.51C12.2301 28.57 12.4001 28.74 12.6601 28.93C12.4101 29.11 12.2501 29.31 12.1201 29.29ZM25.6101 12.24C24.9001 12.1 23.9001 12.61 23.6801 11.28C24.7101 10.92 25.0901 11.72 25.6101 12.24ZM19.4701 29.31C18.4701 29.91 17.6301 29.23 16.7701 28.95C17.6801 29.07 18.5801 29.19 19.4701 29.31ZM12.7901 31.01C12.8201 30.93 12.8401 30.85 12.8701 30.76C13.1901 30.83 13.6101 30.68 13.7401 31.22C13.4201 31.15 13.1001 31.08 12.7901 31.01ZM39.3901 35.61C35.5601 35.04 31.7401 34.47 27.9101 33.87C25.1201 33.44 22.3201 33.03 19.5501 32.48C18.3501 32.24 17.1801 32.03 15.9401 31.99C15.2201 31.97 14.5201 31.52 13.8201 31.24C14.5801 31.15 15.4301 30.84 16.0601 31.1C16.8101 31.4 17.5601 31.51 18.3101 31.66C20.6701 32.12 23.0401 32.5 25.4001 32.92C27.6401 33.32 29.8801 33.73 32.1201 34.13C32.2001 34.14 32.2901 34.2 32.3601 34.19C34.0901 33.87 35.6801 34.6 37.3201 34.87C38.5001 35.06 39.7501 34.91 40.9901 35.74C40.3401 35.69 39.8601 35.68 39.3901 35.61ZM42.2801 35.9C44.1501 35.79 45.9701 36.21 47.8101 36.37C49.7501 36.54 51.6901 36.78 53.6201 37.01C55.5001 37.24 57.3701 37.51 59.2401 37.74C61.1701 37.98 63.1001 38.2 65.0201 38.43C66.9001 38.66 68.7901 38.89 70.6701 39.12C61.1001 39.05 51.7401 37.06 42.2801 35.9ZM120.59 42.04C121.6 41.96 122.61 41.89 123.62 41.81C122.66 42.59 121.62 42.12 120.59 42.04ZM125.05 2.75H126.32C126.32 2.78 126.32 2.81 126.32 2.84H125.12C125.1 2.81 125.07 2.78 125.05 2.75ZM125.91 42.29L125.92 41.94H126.68C126.69 42.03 126.69 42.11 126.7 42.2C126.44 42.23 126.17 42.26 125.91 42.29ZM127.23 41.79H128.82C128.27 42.23 128.27 42.23 127.23 41.79ZM128.65 3.07C128.65 3.03 128.65 2.99 128.65 2.96H129.88C129.88 3 129.88 3.04 129.88 3.07H128.65ZM133.49 42.02C133.28 42 133.07 41.99 132.86 41.97L132.9 41.71C133.1 41.74 133.3 41.77 133.51 41.8C133.51 41.88 133.5 41.95 133.49 42.02ZM136.91 41.93C136.8 41.98 136.63 41.9 136.49 41.88C136.48 41.82 136.47 41.77 136.47 41.71C136.7 41.62 136.93 41.53 137.17 41.45C137.21 41.5 137.24 41.55 137.28 41.6C137.15 41.71 137.05 41.87 136.91 41.93ZM139.66 41.61C140.61 41.4 141.57 40.94 142.54 41.66C141.58 41.96 140.61 42.25 139.66 41.61ZM144.34 41.67C144.32 41.6 144.31 41.53 144.29 41.47C144.47 41.33 144.75 41.03 144.82 41.08C145.44 41.44 146.31 40.84 146.95 41.68H144.34V41.67ZM148.98 41.61C148.97 41.52 148.95 41.42 148.94 41.33C149.23 41.29 149.52 41.25 149.81 41.2C149.82 41.3 149.84 41.41 149.85 41.51C149.56 41.55 149.27 41.58 148.98 41.61ZM152.13 5.15C151.04 5.03 149.95 4.9 148.86 4.78C148.87 4.69 148.88 4.6 148.89 4.51C149.97 4.67 151.06 4.83 152.14 4.99C152.14 5.04 152.14 5.1 152.13 5.15ZM153.72 41.28H153.02C153.03 41.16 153.03 40.95 153.06 40.95C153.28 40.93 153.5 40.94 153.72 40.94C153.73 41.05 153.73 41.16 153.72 41.28ZM154.8 41.28C155.9 40.55 156.94 40.54 157.88 41.28H154.8ZM157.23 6.35C157.48 5.63 157.48 5.63 158.35 5.96C157.92 6.12 157.63 6.22 157.23 6.35ZM159.1 39.24C159.07 39.17 159.03 39.09 159 39.02L159.61 38.75C159.64 38.82 159.67 38.88 159.7 38.95C159.5 39.04 159.3 39.14 159.1 39.24ZM162.15 6.57L160.58 6.37C160.59 6.29 160.59 6.22 160.6 6.14L162.18 6.23C162.16 6.35 162.16 6.46 162.15 6.57ZM162.85 9.61C162.86 9.53 162.86 9.45 162.87 9.37C163.16 9.4 163.46 9.43 163.75 9.46C163.76 9.53 163.76 9.6 163.77 9.67C163.47 9.64 163.16 9.63 162.85 9.61ZM168.54 8.16C167.6 7.85 166.66 7.57 165.7 7.33C165.51 7.28 165.26 7.5 165.06 7.59C164.52 7.29 164.07 7.03 163.69 6.82C164.51 6.65 167.99 7.29 169.54 7.95C169.21 8.22 168.93 8.29 168.54 8.16ZM173.32 9.09C172.7 8.67 172.05 8.58 171.32 8.69C170.77 8.78 170.76 8.73 170.46 7.94C172.14 8.29 173.78 8.63 175.53 9C174.72 9.46 174.01 9.56 173.32 9.09ZM177.42 40.1C178.48 39.59 178.51 39.58 179.71 39.93C178.88 40.61 178.23 40.22 177.42 40.1ZM181.11 38.49C180.52 39.17 179.92 38.75 179.31 38.43C179.89 38.15 180.49 38.32 181.11 38.49ZM183.42 14.53C183.51 14.8 183.6 15.08 183.69 15.35C183.18 15.2 183.17 15.2 183.42 14.53ZM183.24 31.86C183.47 31.84 183.65 31.83 183.89 31.81C183.71 32.39 183.52 32.24 183.24 31.86ZM186.37 34.9C185.79 34.94 185.22 34.98 184.64 35.02C185.24 34.63 185.36 34.62 186.37 34.9ZM169.38 40.88C167.92 40.97 166.45 41.06 164.99 41.14C166.46 41.19 167.93 41.25 169.38 40.88ZM161.77 41.14C161.78 41.22 161.78 41.31 161.79 41.4C162.42 41.34 163.05 41.27 163.67 41.21L163.66 41.04C163.03 41.07 162.4 41.11 161.77 41.14ZM2.33008 24.49C2.55008 24.63 2.76008 24.79 3.00008 24.91C3.05008 24.93 3.17008 24.8 3.38008 24.65C3.02008 24.48 2.76008 24.35 2.50008 24.23C2.45008 24.32 2.39008 24.41 2.33008 24.49ZM193.35 16.55C193.78 16.57 193.9 16.32 193.77 15.77C193.5 15.94 193.29 16.07 193.08 16.19C193.17 16.32 193.26 16.55 193.35 16.55ZM3.28008 15.33L3.20008 15C2.87008 15.11 2.55008 15.22 2.22008 15.32C2.24008 15.4 2.26008 15.48 2.28008 15.56C2.61008 15.49 2.94008 15.41 3.28008 15.33ZM187.3 38.18C187.42 38.28 187.53 38.39 187.65 38.49C187.77 38.31 187.89 38.14 188.01 37.96C187.96 37.92 187.92 37.88 187.87 37.85C187.68 37.96 187.49 38.07 187.3 38.18ZM171.4 40.9C171.93 40.94 172.2 40.96 172.46 40.98L172.43 40.76C172.17 40.79 171.92 40.82 171.4 40.9Z" fill="white"/>
</g>
<defs>
<clipPath id="clip0_72_1198">
<rect width="194.67" height="42.93" fill="white"/>
</clipPath>
</defs>
</svg>
