<svg width="195" height="43" viewBox="0 0 195 43" fill="none" xmlns="http://www.w3.org/2000/svg">
<g clip-path="url(#clip0_98_188)">
<path d="M193.11 26.5199C192.5 26.4199 191.88 26.3499 191.26 26.3099C190.74 26.2799 190.22 26.2999 189.74 26.2999C189.54 25.5199 190.34 25.5699 190.37 25.2799C190.51 24.1799 191.29 24.4399 191.96 24.3999C192.87 24.3399 193.77 24.2599 194.67 24.1799C194.5 23.8199 194.29 23.6499 194.05 23.5699C193.62 23.4299 193.17 23.3199 192.71 23.2499C192.14 23.1599 191.82 22.8699 191.79 22.2399C192.21 22.0299 192.61 21.8199 193.02 21.5999C192.3 21.2199 191.66 20.8699 190.79 20.4099C192.07 20.2599 192.75 19.2399 193.88 19.5299C193.47 19.1799 193 18.9799 192.73 18.6299C192.53 18.3699 192.46 17.9799 192.05 18.0699C191.76 18.1399 191.51 18.3699 191.23 18.5299C190.64 18.3299 190.5 17.8599 190.51 17.3099C191.26 17.1399 192.11 17.8299 192.72 17.0099C192.65 15.5399 191.72 15.0999 190.49 14.9799C189.25 14.8599 188.02 14.6899 186.79 14.5799C186.44 14.5499 185.98 14.5099 185.74 14.6899C185.54 14.8399 185.57 15.3199 185.49 15.6899C185.2 15.6499 184.93 15.6099 184.58 15.5699C184.7 15.1499 184.8 14.8099 184.9 14.4799C183.91 14.1599 183.91 14.1599 183.4 14.5099C183.04 14.5399 182.67 14.5699 182.35 14.5899C182.3 13.8599 182.26 13.3099 182.21 12.6399C183.28 12.7799 184.38 12.9099 185.48 13.0799C186.55 13.2499 187.61 13.4699 188.68 13.6299C189.34 13.7299 190 13.7399 190.34 12.9699C189.45 12.6599 188.6 12.3699 187.76 12.0799C186.94 11.7999 186.14 11.4299 185.3 11.2599C184.43 11.0799 183.54 11.0099 182.63 11.0699C182.16 11.0999 181.67 10.9499 181.2 10.8199C180.69 10.6799 180.2 10.3199 179.7 10.3199C178.47 10.3099 178.47 10.3699 177.37 9.34988C180.44 9.88988 183.38 10.3999 186.33 10.9099C186.46 10.4699 186.54 10.1699 186.64 9.82988C186.29 9.70988 186.02 9.57988 185.74 9.51988C183.14 8.98988 180.53 8.46988 177.93 7.93988C174.5 7.23988 171.08 6.50988 167.65 5.80988C163.93 5.05988 160.23 4.20988 156.49 3.60988C151.18 2.76988 145.85 1.99988 140.5 1.42988C135.94 0.939878 131.36 0.699878 126.78 0.479878C121.71 0.239878 116.63 0.0798782 111.56 -0.0101218C108.03 -0.0701218 104.49 0.0198782 100.95 0.0898782C97.9201 0.149878 94.8801 0.269878 91.8501 0.399878C88.5801 0.559878 85.2901 0.859878 82.0001 0.849878C78.4601 0.839878 74.9801 1.49988 71.4501 1.57988C68.5401 1.64988 65.6301 2.05988 62.7201 2.34988C61.9801 2.41988 61.2501 2.63988 60.5201 2.71988C59.7801 2.79988 59.0201 2.76988 58.2801 2.85988C56.0001 3.10988 53.7401 3.41988 51.4701 3.68988C48.3201 4.06988 45.1701 4.38988 42.0301 4.81988C38.6201 5.29988 35.2201 5.88988 31.7901 6.29988C30.3001 6.46988 28.8201 6.65988 27.3401 6.87988C25.6601 7.12988 23.9901 7.44988 22.3101 7.70988C19.5501 8.12988 16.7701 8.42988 14.0301 8.95988C12.2901 9.29988 10.6401 10.0899 8.90008 10.4799C7.55008 10.7899 7.07008 11.8899 6.46008 12.8199C6.24008 13.1499 6.10008 13.5799 5.73008 13.6799C4.96008 13.9099 5.10008 15.0899 4.16008 15.0799C4.16008 15.0799 4.16008 15.1499 4.16008 15.1799C4.28008 15.3199 4.41008 15.4699 4.57008 15.6599C4.11008 16.0599 3.64008 16.0299 3.20008 15.9799C2.00008 15.8499 0.990083 16.1699 0.180083 17.1299C0.390083 17.7799 0.750083 18.0699 1.54008 18.0499C2.60008 18.0199 3.67008 18.2299 4.73008 18.3399C4.76008 18.3399 4.77008 18.4799 4.86008 18.8199C3.17008 18.7199 1.45008 18.4199 8.28633e-05 19.6999C-0.0499171 20.9399 0.830083 21.7199 1.64008 22.5199C1.98008 22.8599 2.36008 23.1599 2.72008 23.4799C2.94008 23.6699 3.14008 23.9499 3.40008 24.0199C4.34008 24.2799 4.78008 24.8299 4.55008 25.6499C5.78008 26.1199 6.91008 26.5199 8.01008 26.9799C8.73008 27.2799 9.34008 27.7399 10.1901 27.8199C10.7401 27.8699 11.5001 28.1699 11.3801 29.1599C10.6801 29.1599 9.92008 29.2699 9.55008 28.6299C9.13008 27.8899 8.29008 28.0599 7.79008 27.5799C7.24008 27.0599 6.64008 27.2699 6.01008 27.5399C6.30008 27.6399 6.62008 27.6699 6.81008 27.8399C7.69008 28.6099 8.60008 29.2899 9.83008 29.3599C10.0601 29.3699 10.2901 29.5499 10.5201 29.6499C11.1001 29.8799 11.6701 30.0999 12.2501 30.3399C12.3201 30.3699 12.3801 30.4399 12.4801 30.5199V31.2899C12.5601 31.3599 12.6201 31.4399 12.6901 31.4599C15.0201 32.0699 17.3501 32.6999 19.6901 33.2499C21.2601 33.6199 22.8601 33.8899 24.4401 34.2099C25.0801 34.3399 25.7201 34.4699 26.3701 34.5699C27.2201 34.7099 28.0801 34.8199 28.9301 34.9599C29.3401 35.0299 29.7401 35.1999 30.1501 35.2299C31.9901 35.3899 33.7701 35.9799 35.6301 36.0299C35.8301 36.0299 36.0201 36.1599 36.2101 36.2499C36.8201 36.5299 37.4001 36.7699 38.1201 36.5699C38.4401 36.4799 38.9601 36.5299 39.1801 36.7399C39.7201 37.2599 40.3701 37.2699 41.0201 37.3199C41.5101 37.3599 42.0501 37.2499 42.4901 37.4099C44.7101 38.2499 47.0701 38.1499 49.3601 38.5799C51.4501 38.9599 53.5501 39.2799 55.6601 39.5399C56.6801 39.6699 57.7101 39.6299 58.7401 39.6199C59.1401 39.6199 59.5501 39.3999 59.7801 39.9799C59.8401 40.1299 60.3101 40.2499 60.5301 40.1799C60.8201 40.0899 60.9301 39.5299 61.4101 39.9399C61.6201 40.1199 61.9901 40.0999 62.2201 40.2599C62.8201 40.6699 63.3401 40.6499 63.8301 40.0399C64.0101 40.2099 64.1301 40.4099 64.3001 40.4699C64.7101 40.6199 65.1501 40.7099 65.5801 40.8199C65.8701 39.9199 66.3701 40.6699 66.7701 40.6199C67.5001 40.5299 68.0001 41.0399 68.6901 41.0299C69.6201 41.0299 70.5601 41.2499 71.5001 41.3499C74.6901 41.6599 77.8901 41.9799 81.0801 42.2399C82.3201 42.3399 83.5701 42.2499 84.8201 42.2999C86.8501 42.3799 88.8801 42.5299 90.9101 42.6099C92.4401 42.6699 93.9801 42.6199 95.5201 42.6599C98.7601 42.7499 102.01 42.9299 105.25 42.9399C110.12 42.9599 115 42.8699 119.87 42.7999C123.71 42.7499 127.54 42.6799 131.37 42.5899C135.5 42.4899 139.62 42.3699 143.74 42.2299C147.78 42.0899 151.82 41.8999 155.87 41.7299C156.98 41.6799 158.09 41.6099 159.28 41.5499C158.99 41.0499 159.02 40.7399 159.46 40.6599C160.26 40.5199 161.08 40.3399 161.89 40.3599C163.6 40.4199 165.3 40.0599 167.01 40.2999C167.09 40.3099 167.17 40.2599 167.25 40.2499C168.1 40.1599 168.96 40.0499 169.81 39.9799C170.33 39.9399 170.86 39.9799 171.39 39.9599C171.68 39.9499 171.97 39.8699 172.26 39.8599C173.17 39.8399 174.08 39.8599 174.99 39.8199C175.49 39.7999 175.94 39.8099 176.45 40.3399C175.5 40.4999 174.71 40.6299 173.93 40.7599C173.94 40.7999 173.95 40.8499 173.96 40.8899C176.42 40.7099 178.88 40.5399 181.34 40.3599C181.34 40.2999 181.34 40.2399 181.35 40.1899C180.96 40.1199 180.56 40.0399 179.86 39.9099C180.34 39.6599 180.55 39.4599 180.74 39.4599C182.33 39.5099 183.79 38.3999 185.43 38.9199C185.54 38.9599 185.72 38.9699 185.8 38.8999C186.01 38.7399 186.18 38.5299 186.37 38.3499C186.17 38.1699 185.95 37.8299 185.77 37.8499C185.13 37.8999 184.49 38.0799 183.81 38.2099C183.11 38.1599 182.34 38.0699 181.56 38.0399C180.77 38.0099 180.69 37.9199 180.84 36.9899C181.48 36.8199 182.18 36.3999 182.73 36.5399C183.79 36.8099 184.79 36.6299 185.81 36.5699C187.11 36.4999 188.41 36.3599 189.72 36.2499C188.44 36.1299 187.24 36.0099 186.41 34.8899C186.36 34.1599 187.35 34.5899 187.39 34.1499C186.93 33.6299 186.53 33.1799 186.16 32.7699C186.67 31.7399 187.62 31.8499 188.33 31.6299C188.64 31.1899 188.92 30.7999 189.22 30.3799C190.32 30.8999 190.91 30.2699 191.47 29.5399C191.01 29.1899 190.25 29.4799 189.91 28.5999C190.38 28.5699 190.78 28.5599 191.16 28.4999C191.42 28.4599 191.85 28.4099 191.91 28.2599C192.13 27.6899 192.56 27.7199 193.02 27.6499C193.25 27.6099 193.56 27.4099 193.64 27.1999C193.78 26.8199 193.47 26.5799 193.11 26.5199ZM191.7 16.4199C191.59 16.5599 191.49 16.6899 191.38 16.8299C191.32 16.6599 191.27 16.4899 191.21 16.3199C191.38 16.3599 191.54 16.3899 191.7 16.4199ZM6.41008 14.4199C6.54008 14.4999 6.61008 14.5399 6.67008 14.5699C6.59008 14.6899 6.52008 14.8199 6.42008 14.9299C6.41008 14.9399 6.22008 14.8499 6.23008 14.8399C6.28008 14.7099 6.34008 14.5699 6.41008 14.4199ZM6.48008 15.3299C6.19008 15.8999 5.93008 15.9199 5.36008 15.4699C5.86008 15.4099 6.10008 15.3799 6.48008 15.3299ZM5.71008 25.1399C6.03008 25.2599 6.35008 25.3699 6.77008 25.5299C6.16008 25.6499 6.16008 25.6499 5.71008 25.1399ZM8.68008 26.4699C8.25008 26.2999 7.82008 26.1299 7.38008 25.9599C7.97008 25.7599 8.52008 25.6499 8.82008 26.2199L8.68008 26.4699ZM9.50008 14.3199C8.85008 14.3299 8.36008 14.0899 8.03008 13.3199C8.29008 13.2599 8.55008 13.1099 8.74008 13.1699C9.15008 13.3099 9.60008 13.4799 9.88008 13.7899C10.1101 14.0299 9.89008 14.3099 9.50008 14.3199ZM12.1201 29.2899C11.9801 29.2699 11.7801 29.0599 11.7601 28.9199C11.7501 28.7899 11.9901 28.4899 12.0401 28.5099C12.2301 28.5699 12.4001 28.7399 12.6601 28.9299C12.4101 29.1099 12.2501 29.3099 12.1201 29.2899ZM25.6101 12.2399C24.9001 12.0999 23.9001 12.6099 23.6801 11.2799C24.7101 10.9199 25.0901 11.7199 25.6101 12.2399ZM19.4701 29.3099C18.4701 29.9099 17.6301 29.2299 16.7701 28.9499C17.6801 29.0699 18.5801 29.1899 19.4701 29.3099ZM12.7901 31.0099C12.8201 30.9299 12.8401 30.8499 12.8701 30.7599C13.1901 30.8299 13.6101 30.6799 13.7401 31.2199C13.4201 31.1499 13.1001 31.0799 12.7901 31.0099ZM39.3901 35.6099C35.5601 35.0399 31.7401 34.4699 27.9101 33.8699C25.1201 33.4399 22.3201 33.0299 19.5501 32.4799C18.3501 32.2399 17.1801 32.0299 15.9401 31.9899C15.2201 31.9699 14.5201 31.5199 13.8201 31.2399C14.5801 31.1499 15.4301 30.8399 16.0601 31.0999C16.8101 31.3999 17.5601 31.5099 18.3101 31.6599C20.6701 32.1199 23.0401 32.4999 25.4001 32.9199C27.6401 33.3199 29.8801 33.7299 32.1201 34.1299C32.2001 34.1399 32.2901 34.1999 32.3601 34.1899C34.0901 33.8699 35.6801 34.5999 37.3201 34.8699C38.5001 35.0599 39.7501 34.9099 40.9901 35.7399C40.3401 35.6899 39.8601 35.6799 39.3901 35.6099ZM42.2801 35.8999C44.1501 35.7899 45.9701 36.2099 47.8101 36.3699C49.7501 36.5399 51.6901 36.7799 53.6201 37.0099C55.5001 37.2399 57.3701 37.5099 59.2401 37.7399C61.1701 37.9799 63.1001 38.1999 65.0201 38.4299C66.9001 38.6599 68.7901 38.8899 70.6701 39.1199C61.1001 39.0499 51.7401 37.0599 42.2801 35.8999ZM120.59 42.0399C121.6 41.9599 122.61 41.8899 123.62 41.8099C122.66 42.5899 121.62 42.1199 120.59 42.0399ZM125.05 2.74988H126.32C126.32 2.77988 126.32 2.80988 126.32 2.83988H125.12C125.1 2.80988 125.07 2.77988 125.05 2.74988ZM125.91 42.2899L125.92 41.9399H126.68C126.69 42.0299 126.69 42.1099 126.7 42.1999C126.44 42.2299 126.17 42.2599 125.91 42.2899ZM127.23 41.7899H128.82C128.27 42.2299 128.27 42.2299 127.23 41.7899ZM128.65 3.06988C128.65 3.02988 128.65 2.98988 128.65 2.95988H129.88C129.88 2.99988 129.88 3.03988 129.88 3.06988H128.65ZM133.49 42.0199C133.28 41.9999 133.07 41.9899 132.86 41.9699L132.9 41.7099C133.1 41.7399 133.3 41.7699 133.51 41.7999C133.51 41.8799 133.5 41.9499 133.49 42.0199ZM136.91 41.9299C136.8 41.9799 136.63 41.8999 136.49 41.8799C136.48 41.8199 136.47 41.7699 136.47 41.7099C136.7 41.6199 136.93 41.5299 137.17 41.4499C137.21 41.4999 137.24 41.5499 137.28 41.5999C137.15 41.7099 137.05 41.8699 136.91 41.9299ZM139.66 41.6099C140.61 41.3999 141.57 40.9399 142.54 41.6599C141.58 41.9599 140.61 42.2499 139.66 41.6099ZM144.34 41.6699C144.32 41.5999 144.31 41.5299 144.29 41.4699C144.47 41.3299 144.75 41.0299 144.82 41.0799C145.44 41.4399 146.31 40.8399 146.95 41.6799H144.34V41.6699ZM148.98 41.6099C148.97 41.5199 148.95 41.4199 148.94 41.3299C149.23 41.2899 149.52 41.2499 149.81 41.1999C149.82 41.2999 149.84 41.4099 149.85 41.5099C149.56 41.5499 149.27 41.5799 148.98 41.6099ZM152.13 5.14988C151.04 5.02988 149.95 4.89988 148.86 4.77988C148.87 4.68988 148.88 4.59988 148.89 4.50988C149.97 4.66988 151.06 4.82988 152.14 4.98988C152.14 5.03988 152.14 5.09988 152.13 5.14988ZM153.72 41.2799H153.02C153.03 41.1599 153.03 40.9499 153.06 40.9499C153.28 40.9299 153.5 40.9399 153.72 40.9399C153.73 41.0499 153.73 41.1599 153.72 41.2799ZM154.8 41.2799C155.9 40.5499 156.94 40.5399 157.88 41.2799H154.8ZM157.23 6.34988C157.48 5.62988 157.48 5.62988 158.35 5.95988C157.92 6.11988 157.63 6.21988 157.23 6.34988ZM159.1 39.2399C159.07 39.1699 159.03 39.0899 159 39.0199L159.61 38.7499C159.64 38.8199 159.67 38.8799 159.7 38.9499C159.5 39.0399 159.3 39.1399 159.1 39.2399ZM162.15 6.56988L160.58 6.36988C160.59 6.28988 160.59 6.21988 160.6 6.13988L162.18 6.22988C162.16 6.34988 162.16 6.45988 162.15 6.56988ZM162.85 9.60988C162.86 9.52988 162.86 9.44988 162.87 9.36988C163.16 9.39988 163.46 9.42988 163.75 9.45988C163.76 9.52988 163.76 9.59988 163.77 9.66988C163.47 9.63988 163.16 9.62988 162.85 9.60988ZM168.54 8.15988C167.6 7.84988 166.66 7.56988 165.7 7.32988C165.51 7.27988 165.26 7.49988 165.06 7.58988C164.52 7.28988 164.07 7.02988 163.69 6.81988C164.51 6.64988 167.99 7.28988 169.54 7.94988C169.21 8.21988 168.93 8.28988 168.54 8.15988ZM173.32 9.08988C172.7 8.66988 172.05 8.57988 171.32 8.68988C170.77 8.77988 170.76 8.72988 170.46 7.93988C172.14 8.28988 173.78 8.62988 175.53 8.99988C174.72 9.45988 174.01 9.55988 173.32 9.08988ZM177.42 40.0999C178.48 39.5899 178.51 39.5799 179.71 39.9299C178.88 40.6099 178.23 40.2199 177.42 40.0999ZM181.11 38.4899C180.52 39.1699 179.92 38.7499 179.31 38.4299C179.89 38.1499 180.49 38.3199 181.11 38.4899ZM183.42 14.5299C183.51 14.7999 183.6 15.0799 183.69 15.3499C183.18 15.1999 183.17 15.1999 183.42 14.5299ZM183.24 31.8599C183.47 31.8399 183.65 31.8299 183.89 31.8099C183.71 32.3899 183.52 32.2399 183.24 31.8599ZM186.37 34.8999C185.79 34.9399 185.22 34.9799 184.64 35.0199C185.24 34.6299 185.36 34.6199 186.37 34.8999ZM169.38 40.8799C167.92 40.9699 166.45 41.0599 164.99 41.1399C166.46 41.1899 167.93 41.2499 169.38 40.8799ZM161.77 41.1399C161.78 41.2199 161.78 41.3099 161.79 41.3999C162.42 41.3399 163.05 41.2699 163.67 41.2099L163.66 41.0399C163.03 41.0699 162.4 41.1099 161.77 41.1399ZM2.33008 24.4899C2.55008 24.6299 2.76008 24.7899 3.00008 24.9099C3.05008 24.9299 3.17008 24.7999 3.38008 24.6499C3.02008 24.4799 2.76008 24.3499 2.50008 24.2299C2.45008 24.3199 2.39008 24.4099 2.33008 24.4899ZM193.35 16.5499C193.78 16.5699 193.9 16.3199 193.77 15.7699C193.5 15.9399 193.29 16.0699 193.08 16.1899C193.17 16.3199 193.26 16.5499 193.35 16.5499ZM3.28008 15.3299L3.20008 14.9999C2.87008 15.1099 2.55008 15.2199 2.22008 15.3199C2.24008 15.3999 2.26008 15.4799 2.28008 15.5599C2.61008 15.4899 2.94008 15.4099 3.28008 15.3299ZM187.3 38.1799C187.42 38.2799 187.53 38.3899 187.65 38.4899C187.77 38.3099 187.89 38.1399 188.01 37.9599C187.96 37.9199 187.92 37.8799 187.87 37.8499C187.68 37.9599 187.49 38.0699 187.3 38.1799ZM171.4 40.8999C171.93 40.9399 172.2 40.9599 172.46 40.9799L172.43 40.7599C172.17 40.7899 171.92 40.8199 171.4 40.8999Z" fill="#C85A3C"/>
</g>
<defs>
<clipPath id="clip0_98_188">
<rect width="194.67" height="42.93" fill="white"/>
</clipPath>
</defs>
</svg>
